<?xml version="1.0" encoding="UTF-8" standalone="no"?>
<!DOCTYPE svg PUBLIC "-//W3C//DTD SVG 1.1//EN" "http://www.w3.org/Graphics/SVG/1.1/DTD/svg11.dtd">
<svg width="100%" height="100%" viewBox="0 0 24 24" version="1.1" xmlns="http://www.w3.org/2000/svg" xmlns:xlink="http://www.w3.org/1999/xlink" xml:space="preserve" xmlns:serif="http://www.serif.com/" style="fill-rule:evenodd;clip-rule:evenodd;stroke-linejoin:round;stroke-miterlimit:2;">
    <g transform="matrix(0.0232261,0,0,0.0232261,12.0019,11.9375)">
        <g transform="matrix(1,0,0,1,-400,-400)">
            <path d="M662.395,157.096C661.844,153.096 658.34,150.882 655.444,150.638C652.553,150.397 591.381,145.863 591.381,145.863C591.381,145.863 548.896,103.685 544.233,99.016C539.567,94.351 530.455,95.77 526.918,96.811C526.397,96.964 517.636,99.668 503.142,104.153C488.951,63.315 463.904,25.786 419.841,25.786C418.625,25.786 417.373,25.836 416.121,25.907C403.589,9.334 388.066,2.134 374.658,2.134C272.014,2.134 222.975,130.449 207.6,195.655C167.715,208.014 139.381,216.8 135.762,217.937C113.499,224.921 112.795,225.622 109.871,246.6C107.671,262.482 49.419,712.973 49.419,712.973L503.332,798.019L749.277,744.814C749.277,744.814 662.94,161.096 662.397,157.096L662.395,157.096ZM478.055,111.912L439.647,123.8C439.66,121.093 439.674,118.43 439.674,115.518C439.674,90.137 436.151,69.701 430.499,53.501C453.203,56.351 468.323,82.184 478.055,111.912ZM402.334,58.534C408.647,74.351 412.751,97.049 412.751,127.679C412.751,129.247 412.737,130.679 412.723,132.129C387.745,139.866 360.603,148.266 333.4,156.693C348.674,97.745 377.304,69.274 402.334,58.534ZM371.838,29.666C376.268,29.666 380.732,31.17 385.003,34.11C352.107,49.589 316.847,88.575 301.956,166.43L239.255,185.849C256.696,126.466 298.11,29.666 371.836,29.666L371.838,29.666Z" style="fill:rgb(149,191,70);fill-rule:nonzero;"/>
            <path d="M655.444,150.638C652.553,150.397 591.381,145.863 591.381,145.863C591.381,145.863 548.896,103.685 544.233,99.016C542.488,97.279 540.134,96.389 537.674,96.005L503.353,798.014L749.277,744.814C749.277,744.814 662.937,161.096 662.395,157.096C661.844,153.096 658.34,150.882 655.444,150.638" style="fill:rgb(94,142,62);fill-rule:nonzero;"/>
            <path d="M419.841,286.534L389.515,376.742C389.515,376.742 362.945,362.562 330.375,362.562C282.627,362.562 280.225,392.526 280.225,400.077C280.225,441.277 387.622,457.063 387.622,553.567C387.622,629.493 339.466,678.384 274.534,678.384C196.616,678.384 156.77,629.89 156.77,629.89L177.633,560.959C177.633,560.959 218.592,596.123 253.153,596.123C275.737,596.123 284.923,578.342 284.923,565.351C284.923,511.608 196.814,509.211 196.814,420.901C196.814,346.575 250.162,274.649 357.849,274.649C399.342,274.649 419.841,286.534 419.841,286.534" style="fill:white;fill-rule:nonzero;"/>
        </g>
    </g>
</svg>
